<svg width="148" height="21" viewBox="0 0 148 21" fill="none" xmlns="http://www.w3.org/2000/svg">
<path d="M0 0H8.86151V9.26467H0V0Z" fill="#FDB400"/>
<path d="M0 11.7353H8.86151V21H0V11.7353Z" fill="#FDB400"/>
<path d="M11.2248 0H20.0863V9.26467H11.2248V0Z" fill="#FDB400"/>
<path d="M11.2248 11.7353H20.0863V21H11.2248V11.7353Z" fill="#FDB400"/>
<path d="M33.9938 17.2199H27.9664V3.31487H34.4269C36.057 3.34003 37.212 3.83372 37.8917 4.79594C38.3008 5.38711 38.5053 6.09463 38.5053 6.91849C38.5053 7.76751 38.3008 8.44987 37.8917 8.96557C37.6631 9.25487 37.3263 9.51901 36.8811 9.75799C37.5609 10.0158 38.0722 10.4246 38.4151 10.9844C38.7639 11.5441 38.9384 12.2233 38.9384 13.022C38.9384 13.8459 38.7399 14.5848 38.3429 15.2389C38.0902 15.6728 37.7744 16.0376 37.3954 16.3332C36.9684 16.6728 36.4631 16.9055 35.8796 17.0313C35.3021 17.157 34.6735 17.2199 33.9938 17.2199ZM33.9306 11.0976H30.6191V14.8049H33.8855C34.469 14.8049 34.9231 14.7232 35.248 14.5597C35.8375 14.2578 36.1322 13.6792 36.1322 12.8239C36.1322 12.1007 35.8465 11.6038 35.275 11.3334C34.9562 11.1825 34.5081 11.1038 33.9306 11.0976ZM35.3111 8.44673C35.672 8.22032 35.8525 7.81468 35.8525 7.2298C35.8525 6.58203 35.6119 6.15437 35.1307 5.94683C34.7156 5.80219 34.1862 5.72986 33.5426 5.72986H30.6191V8.79577H33.8855C34.469 8.79577 34.9442 8.67942 35.3111 8.44673Z" fill="#1E1E1E"/>
<path d="M49.1435 11.8617V3.31487H51.9677V11.8617C51.9677 13.3396 51.7481 14.4905 51.309 15.3144C50.4909 16.8237 48.9299 17.5784 46.626 17.5784C44.3221 17.5784 42.7581 16.8237 41.934 15.3144C41.4949 14.4905 41.2754 13.3396 41.2754 11.8617V3.31487H44.0996V11.8617C44.0996 12.8176 44.2079 13.5157 44.4244 13.9559C44.7613 14.7358 45.4951 15.1257 46.626 15.1257C47.7509 15.1257 48.4818 14.7358 48.8186 13.9559C49.0352 13.5157 49.1435 12.8176 49.1435 11.8617Z" fill="#1E1E1E"/>
<path d="M54.4129 3.31487H57.174V17.2199H54.4129V3.31487Z" fill="#1E1E1E"/>
<path d="M59.7726 3.31487H62.5517V14.72H69.1385V17.2199H59.7726V3.31487Z" fill="#1E1E1E"/>
<path d="M76.7991 17.2199H71.0695V3.31487H76.7991C77.6232 3.32745 78.309 3.42807 78.8564 3.61674C79.7887 3.93749 80.5437 4.52551 81.1211 5.38082C81.5843 6.07262 81.9001 6.82101 82.0686 7.62601C82.237 8.43101 82.3212 9.19827 82.3212 9.9278C82.3212 11.7768 81.9663 13.3427 81.2565 14.6257C80.294 16.3552 78.8082 17.2199 76.7991 17.2199ZM78.8654 6.86189C78.4383 6.1072 77.5931 5.72986 76.3299 5.72986H73.7674V14.8049H76.3299C77.6413 14.8049 78.5556 14.1289 79.0729 12.7767C79.3556 12.0346 79.497 11.151 79.497 10.1259C79.497 8.71087 79.2865 7.62286 78.8654 6.86189Z" fill="#1E1E1E"/>
<path d="M92.3548 17.2199V11.0127H87.1576V17.2199H84.4055V3.31487H87.1576V8.61653H92.3548V3.31487H95.1159V17.2199H92.3548Z" fill="#1E1E1E"/>
<path d="M103.661 17.6067C101.76 17.6067 100.307 17.0659 99.3026 15.9841C97.9552 14.6572 97.2814 12.7453 97.2814 10.2485C97.2814 7.70148 97.9552 5.78961 99.3026 4.51293C100.307 3.43122 101.76 2.89036 103.661 2.89036C105.562 2.89036 107.014 3.43122 108.019 4.51293C109.36 5.78961 110.031 7.70148 110.031 10.2485C110.031 12.7453 109.36 14.6572 108.019 15.9841C107.014 17.0659 105.562 17.6067 103.661 17.6067ZM106.286 13.871C106.93 13.022 107.252 11.8145 107.252 10.2485C107.252 8.68886 106.927 7.4845 106.277 6.63548C105.634 5.78017 104.762 5.35252 103.661 5.35252C102.56 5.35252 101.682 5.77703 101.026 6.62605C100.37 7.47507 100.042 8.68257 100.042 10.2485C100.042 11.8145 100.37 13.022 101.026 13.871C101.682 14.72 102.56 15.1446 103.661 15.1446C104.762 15.1446 105.637 14.72 106.286 13.871Z" fill="#1E1E1E"/>
<path d="M120.029 11.8617V3.31487H122.853V11.8617C122.853 13.3396 122.633 14.4905 122.194 15.3144C121.376 16.8237 119.815 17.5784 117.511 17.5784C115.207 17.5784 113.643 16.8237 112.819 15.3144C112.38 14.4905 112.16 13.3396 112.16 11.8617V3.31487H114.985V11.8617C114.985 12.8176 115.093 13.5157 115.309 13.9559C115.646 14.7358 116.38 15.1257 117.511 15.1257C118.636 15.1257 119.367 14.7358 119.704 13.9559C119.92 13.5157 120.029 12.8176 120.029 11.8617Z" fill="#1E1E1E"/>
<path d="M130.342 15.2106C130.998 15.2106 131.53 15.1351 131.939 14.9842C132.715 14.6949 133.103 14.1572 133.103 13.371C133.103 12.9119 132.91 12.5566 132.525 12.3051C132.14 12.0598 131.536 11.8428 130.712 11.6541L129.304 11.324C127.921 10.9969 126.964 10.6416 126.435 10.258C125.539 9.61649 125.09 8.61339 125.09 7.24867C125.09 6.00344 125.524 4.96889 126.39 4.14502C127.256 3.32116 128.528 2.90923 130.207 2.90923C131.608 2.90923 132.802 3.29915 133.789 4.07899C134.781 4.85254 135.302 5.97828 135.35 7.4562H132.679C132.631 6.61976 132.282 6.02545 131.632 5.67326C131.199 5.44057 130.661 5.32422 130.017 5.32422C129.301 5.32422 128.73 5.47516 128.303 5.77703C127.876 6.0789 127.662 6.50027 127.662 7.04113C127.662 7.53796 127.873 7.90901 128.294 8.15429C128.564 8.3178 129.142 8.50962 130.026 8.72973L132.318 9.30518C133.323 9.55674 134.08 9.89321 134.592 10.3146C135.386 10.9686 135.783 11.9151 135.783 13.1541C135.783 14.4245 135.317 15.481 134.384 16.3238C133.458 17.1602 132.146 17.5784 130.45 17.5784C128.718 17.5784 127.355 17.1665 126.363 16.3426C125.37 15.5125 124.874 14.3741 124.874 12.9277H127.527C127.611 13.5629 127.776 14.0377 128.023 14.3521C128.474 14.9244 129.247 15.2106 130.342 15.2106Z" fill="#1E1E1E"/>
<path d="M147.098 11.1447H140.637V14.72H148V17.2199H137.921V3.31487H147.675V5.77703H140.637V8.72973H147.098V11.1447Z" fill="#1E1E1E"/>
</svg>
